<svg height="1024" preserveAspectRatio="none" viewBox="0 0 1024 1024" width="1024" xmlns="http://www.w3.org/2000/svg"><path d="m969.6 351.25q-8.6-20.85-19.4-40.85-6.1-11.35-12.9-22.4-29.35-47.55-71.55-89.8-138.25-138.25-333.8-138.25-195.5 0-333.75 138.25-138.25 138.25-138.25 333.75 0 195.55 138.25 333.8 138.25 138.2 333.75 138.2 195.55 0 333.8-138.2 76.15-76.2 110.35-169.75 27.85-76.25 27.85-164.05 0-67.35-16.4-127.95-1.85-6.85-3.9-13.6-6.15-19.95-14.05-39.15z" fill-opacity=".098039"/><path d="m969.7 392q-1.75-6.85-3.65-13.6-1.52421875-5.28554687-3.2-10.55-2.47128906-7.946875-5.25-15.8-9.75-27.55-23.15-53.65-5.8-11.35-12.3-22.4-30.65-52-76.35-97.75-109-109-253.65-132.05-24.5-3.9-50.05-5.35-14.9-.85-30.1-.85-14.1 0-27.9.75-177.55 9.2-305.85 137.5-138.25 138.25-138.25 333.75 0 195.55 138.25 333.8 84.79003906 84.75703125 191.1 117.55 54.53808594 16.81308594 114.75 19.95.2 0 .4 0 12.15.6 24.5.7 1.5 0 3 0 15.25 0 30.1-.8 3.5-.2 6.95-.45 30.05-2.15 58.7-7.7 11.8-2.3 23.4-5.15 120.6-30.05 214.65-124.1 72.9-72.95 107.35-161.8 27.75-71.6 30.55-153.5.3-9.2.3-18.5 0-1 0-2 0-.5 0-1-.35-61.3-14.3-117z" fill="#ebeded"/><path d="m953.15 684q16.32929688-42.13222656 24-87.85l-331.15-331.15-58 68-61-61-89 21-40 116-68 17 39.35 39.35-40.35 252.65-88 40 223.95 223.95q9.4984375.84726563 19.15 1.35.2 0 .4 0 12.15.6 24.5.7 1.5 0 3 0 15.25 0 30.1-.8 3.5-.2 6.95-.45 30.05-2.15 58.7-7.7 11.8-2.3 23.4-5.15 120.6-30.05 214.65-124.1 72.9-72.95 107.35-161.8z" fill="#333" fill-opacity=".2"/><g transform="matrix(5.12602234 0 0 5.12602234 123.35 106.75)"><path d="m57.85 34.3q-2.45 2.3-4.05 5.65-1.65 3.45-2.55 8l-1.4 7h-7.05q-.5 0-.9.3-.35.3-.7.8-.3.45-.55 1.15l-.4 1.25-.25 2.4q0 1.05.3 1.4.35.35.9.35h7.15l-9.15 45.65q-.7 3.35-1.5 5.65-.85 2.4-2 3.9-1.15 1.45-2.9 2.25-1.6.7-4.05.7l-1.5-.05-2.55-.45q-.3 0-.65.35-.25.3-.5.9l-.95 4.3.1.9.35.6q.3.3 2 .75 1.45.35 4.1.35 3.85 0 6.9-1.05 3.1-1.15 5.4-3.35 2.3-2.15 4-5.7 1.6-3.45 2.55-8.15l9.55-47.55h11.25q.45 0 .8-.3.4-.25.7-.7.35-.55.55-1.05l.45-1.2.25-1.35q.1-.45.1-1.25 0-1-.35-1.4-.4-.4-.95-.4h-11.25l.95-5.05q.6-3.05 1.45-5.5.85-2.3 2.1-3.9 1.2-1.5 2.9-2.25 1.6-.7 4.1-.7 1.4 0 2.35.2 1.3.3 1.85.5l1.35.45q.65.25 1 .25.25 0 .6-.35.25-.3.5-.9l.4-1.2.45-3q0-.5-.15-1.05-.2-.5-.5-.8-.5-.4-1.2-.65-.95-.4-2.05-.6l-2.45-.4q-.9-.1-2.6-.1-3.7 0-6.85 1.05-3.1 1.15-5.45 3.35z" fill="#e37031"/><path d="m102.15 32.05-.05-.75q-.15-.4-.65-.6-.45-.2-1.3-.3l-2.2-.15-2.3.15q-.95.05-1.55.3-.6.25-.8.6-.2.25-.4.75l-14.85 74.6q-.25.85.6 1.3.75.45 3.1.45 2.15 0 3.35-.4 1.05-.35 1.2-1.35l1-4.9q2.85 3.65 6.35 5.45 3.65 1.9 8.6 1.9 4.85 0 8.75-1.8 3.85-1.8 6.85-4.8 3.05-3.05 5.05-6.9 2.05-3.7 3.45-7.95 1.35-4.15 1.95-8.15.65-3.9.65-7.4 0-1.5-.25-3.65-.2-1.95-.75-4-.65-2.2-1.6-3.9-1-1.85-2.7-3.4-1.65-1.45-4.1-2.35-2.4-.9-5.75-.9-3.05 0-6.2 1.15-3.3 1.3-5.65 2.95-2.5 1.65-4.55 3.85-1.95 2.15-2.8 4.05l2.4-8.4q.5-1.9.65-3zm16.85 37.35q.3 1.95.3 3.45 0 2.5-.5 6-.4 2.9-1.4 6.35-.8 2.9-2.3 6-1.4 2.95-3.3 5.1-1.85 2.2-4.25 3.6-2.3 1.35-5.25 1.35-3.7 0-6.8-1.85-3.05-1.9-5.65-5.7l1.85-9.25q1-4.95 3.05-9 2.2-4.25 4.75-7.15 2.7-3 5.8-4.75 3.2-1.75 6.15-1.75 2.55 0 4.1 1.15 1.5 1.05 2.35 2.85.8 1.6 1.1 3.6z" fill="#6a899e"/></g></svg>